<svg xmlns="http://www.w3.org/2000/svg" width="64" height="64" stroke="null"><g stroke="null"><title stroke="null">background</title><rect stroke="null" fill="none" id="canvas_background" height="402" width="582" y="-1" x="-1"/></g><g stroke="null"><title stroke="null">Layer 1</title><ellipse stroke="null" ry="31.82196" rx="31.82196" id="svg_10" cy="32.000002" cx="32.111267" stroke-opacity="null" stroke-width="NaN" fill="#000000"/><path fill="#ff7f00" stroke="null" id="svg_1" d="m38,49a1,1 0 0 1 -0.759,-0.35l-4.241,-4.95l0,15.849l19,-7.238l0,-8.574l-13.644,5.2a1,1 0 0 1 -0.356,0.063z"/><path fill="#7f3f00" stroke="null" id="svg_2" d="m32,28.04l-17.834,5.1l17.834,6.79l17.834,-6.794l-17.834,-5.096zm-7,6.96l-2,0l0,-2l2,0l0,2zm4,-2l-2,0l0,0l2,0zm4,0l-2,0l0,0l2,0zm4,0l-2,0l0,0l2,0zm2,0l0,0l2,0l0,2l-2,-2z"/><polygon fill="#ffaa56" stroke="null" id="svg_3" points="33.685 41.429 38.301 46.815 57.315 39.571 52.699 34.185 33.685 41.429"/><polygon fill="#ffaa56" stroke="null" id="svg_4" points="30.301 41.423 11.301 34.185 6.629 39.637 24.735 47.784 30.301 41.423"/><path fill="#ff7f00" stroke="null" id="svg_5" d="m24.59,49.912l-12.59,-5.666l0,8.065l19,7.238l0,-15.888l-5.248,6a1,1 0 0 1 -1.162,0.251z"/><path fill="#5fbf00" stroke="null" id="svg_7" d="m24.887344,19a1,1 0 0 0 0.6,-0.2l4,-3l-1.2,-1.6l-2.4,1.8l0,-14l-2,0l0,14l-2.4,-1.8l-1.2,1.6l4,3a1,1 0 0 0 0.6,0.2z"/><path stroke="null" fill="#5fbf00" id="svg_9" d="m32,27.036862a1,1.392702 0 0 0 0.6,-0.27854l4,-4.178106l-1.2,-2.228323l-2.4,2.506864l0,-19.497829l-2,0l0,19.497829l-2.4,-2.506864l-1.2,2.228323l4,4.178106a1,1.392702 0 0 0 0.6,0.27854z"/><path fill="#5fbf00" stroke="null" id="svg_12" d="m39.223922,19a1,1 0 0 0 0.6,-0.2l4,-3l-1.2,-1.6l-2.4,1.8l0,-14l-2,0l0,14l-2.4,-1.8l-1.2,1.6l4,3a1,1 0 0 0 0.6,0.2z"/></g></svg>